<svg xmlns="http://www.w3.org/2000/svg" width="90.333" height="92.447" viewBox="0 0 90.333 92.447"><path fill="#1E1E1E" d="M7.035 32.098c-.833-4.028-1.852-8.034-2.384-12.104-.155-1.195.784-2.838 1.707-3.817 3.65-3.884 7.304-7.813 11.375-11.224 1.342-1.123 3.95-.936 5.985-.97 1.887-.03 3.84.868 5.667.626 18.466-2.448 32.9 9.924 32.77 28.632-.028 4.217 1.51 4.93 5.18 5.143 2.354.135 4.622 1.798 6.93 2.776-1.042 2.064-1.667 4.527-3.198 6.12-7.507 7.806-15.19 15.442-22.98 22.97-1.25 1.21-3.988 2.627-4.872 2.076-1.505-.94-3.028-3.448-2.877-5.147.51-5.717-1.846-6.656-7.125-6.693-15.345-.11-27.206-12.785-26.177-28.39zm37.89-11.428c-1.958-6.6-11.733-9.544-16.413-4.996 5.516 1.68 10.83 3.298 16.412 4.996z"/><path fill="#9B1B26" d="M69.14 54.654c9.27 1.565 19.05 28.904 13.65 36.792-1.768-13.26-5.06-25.972-13.65-36.792zM62.46 61.11c6.95 2.295 13.717 22.06 9.846 29.048-3.283-9.687-6.516-19.23-9.847-29.05zM55.813 67.49c1.146.847 2.605 1.35 2.918 2.25 1.88 5.398 3.577 10.867 5.105 16.378.21.76-.86 1.876-1.338 2.827-.697-.538-1.803-.943-2.025-1.633-1.91-5.898-3.672-11.844-5.418-17.792-.11-.363.31-.88.76-2.03z"/></svg>