<svg xmlns="http://www.w3.org/2000/svg" xmlns:xlink="http://www.w3.org/1999/xlink" width="90.333" height="92.447" viewBox="0 0 90.333 92.447"><path fill="#1E1E1E" d="M28.647 71.764c.087 3.822.087 3.822 7.953 11.683-1.736 1.958-3.322 4.11-5.297 5.812-.897.772-2.816 1.265-3.844.842C18.75 86.526 10.607 82 4.756 74.324.027 68.12 1.51 60.04 8.23 56.262c1.124-.632 3.388.223 4.89.905 8.29 3.787 16.527 4.196 24.328-.86 7.785-5.05 11.537-12.466 10.23-21.78-1.068-7.615-5.74-12.647-13.038-14.974-10.718-3.416-21.51 5.13-20.21 15.866.653 5.407 4.963 9.908 10.318 10.775 4.928.798 9.48-1.582 11.507-6.015 2.698-5.902-1.365-12.934-7.214-11.872-2.086.378-4.238 2.794-5.41 4.83-.6 1.04.894 3.29 1.44 4.99l1.47-.387c.25-.56.434-1.163.76-1.675.89-1.39 1.837-2.74 2.76-4.105 1.052 1.777 2.998 3.573 2.963 5.33-.067 3.44-2.714 5.115-6.13 5.27-4.162.19-7.862-2.735-8.666-6.796-1.29-6.52 3.57-12.656 10.427-13.172 10.728-.808 18.208 9.637 14.715 20.548-2.532 7.904-9.603 13-18.18 13.094-9.765.11-17.977-5.577-21.1-14.61-4.605-13.322 1.324-28.16 13.98-34.982 13.487-7.27 29.942-4.548 38.162 7.306 3.688 5.32 5.37 12.023 8 18.084.698 1.61 1.123 3.962 2.372 4.595 4.74 2.403 6.477 6.554 7.458 11.215 1.483 7.033 3.903 13.08 10.718 17.072 4.784 2.802 5.174 6.76 2.325 11.706-1.642 2.85-3.827 5.436-6.05 7.882-3.278 3.604-7.082 3.94-11.807 2.37-5.608-1.865-11.54-3.395-17.404-3.704-7.82-.412-14.226-2.913-19.51-8.59-.83-.89-1.95-1.506-3.687-2.814zm22.98-20.686c3.295 7.458 10.422 5.873 16.26 8.54-2.96-8.16-9.082-11.34-16.26-8.54z"/><defs><path id="a" d="M28.647 71.764c.087 3.822.087 3.822 7.953 11.683-1.736 1.958-3.322 4.11-5.297 5.812-.897.772-2.816 1.265-3.844.842C18.75 86.526 10.607 82 4.756 74.324.027 68.12 1.51 60.04 8.23 56.262c1.124-.632 3.388.223 4.89.905 8.29 3.787 16.527 4.196 24.328-.86 7.785-5.05 11.537-12.466 10.23-21.78-1.068-7.615-5.74-12.647-13.038-14.974-10.718-3.416-21.51 5.13-20.21 15.866.653 5.407 4.963 9.908 10.318 10.775 4.928.798 9.48-1.582 11.507-6.015 2.698-5.902-1.365-12.934-7.214-11.872-2.086.378-4.238 2.794-5.41 4.83-.6 1.04.894 3.29 1.44 4.99l1.47-.387c.25-.56.434-1.163.76-1.675.89-1.39 1.837-2.74 2.76-4.105 1.052 1.777 2.998 3.573 2.963 5.33-.067 3.44-2.714 5.115-6.13 5.27-4.162.19-7.862-2.735-8.666-6.796-1.29-6.52 3.57-12.656 10.427-13.172 10.728-.808 18.208 9.637 14.715 20.548-2.532 7.904-9.603 13-18.18 13.094-9.765.11-17.977-5.577-21.1-14.61-4.605-13.322 1.324-28.16 13.98-34.982 13.487-7.27 29.942-4.548 38.162 7.306 3.688 5.32 5.37 12.023 8 18.084.698 1.61 1.123 3.962 2.372 4.595 4.74 2.403 6.477 6.554 7.458 11.215 1.483 7.033 3.903 13.08 10.718 17.072 4.784 2.802 5.174 6.76 2.325 11.706-1.642 2.85-3.827 5.436-6.05 7.882-3.278 3.604-7.082 3.94-11.807 2.37-5.608-1.865-11.54-3.395-17.404-3.704-7.82-.412-14.226-2.913-19.51-8.59-.83-.89-1.95-1.506-3.687-2.814zm22.98-20.686c3.295 7.458 10.422 5.873 16.26 8.54-2.96-8.16-9.082-11.34-16.26-8.54z"/></defs><clipPath id="b"><use xlink:href="#a" overflow="visible"/></clipPath><path clip-path="url(#b)" fill="#9B1B26" d="M67.667 33.28s-2.332 3.667-5.5 5.167C59 39.947 48.333 40.614 47 40.114c-1.334-.5-3.667 6.11-3.667 6.11L35 55.28l-14.333 2.667-16.833-7.5L1.167 23.78s6.167-18 6.667-18.333S27.167.78 27.167.78l24.5 1.852 16 18.98V33.28z"/></svg>