<svg xmlns="http://www.w3.org/2000/svg" xmlns:xlink="http://www.w3.org/1999/xlink" width="90.333" height="92.447" viewBox="0 0 90.333 92.447"><path fill="#1E1E1E" d="M34.057 90.04C26.92 87.947 23.85 79.93 26.93 73.79c.71-1.42.773-3.162 1.136-4.756-1.852.62-2.32-2.078-3.732-.92-3.813 3.126-6.53 9.244-5.802 13.985.21 1.36.524 3.837.84 5.88-3.534-3.778-4.487-7.938-2.15-12.7 1.822-3.707 4.792-6.85 7.258-10.253-6.104-2.887-14.314 2.86-15.5 12.35-2.064-4.968.465-11.37 6.693-13.67 4.95-1.83 6.068-2.538 8.162-9.25-.297-1.766-3.027-3.856-4.2-5.12-2.82-3.045-6.077-5.68-9.09-8.55-3.378-3.215-4.09-7.036-1.2-10.732 3.108-3.98 3.598-7.91 2.772-12.895C10.5 7.38 17.877 1.05 28.214 3.197c-1.03 2.32-2.182 4.486-2.95 6.782-.55 1.64-.585 3.453-.85 5.187 1.73.21 3.454.52 5.188.59 1.102.042 2.217-.277 3.3-.433 1.685 7.14-2.145 11.613-10.3 11.336-4.892-.168-8.673.783-10.31 5.57-.566 1.656-.33 4.31.685 5.632 2.098 2.74 4.817 5.08 7.568 7.212 1.512 1.172 4.56 2.724 5.262 2.134 2.04-1.712 4.032-4.245 4.59-6.775.835-3.78 2.283-5.265 6.025-3.965.463.16 12.42 1.057 17.847-.132 3.78-.827 5.19.375 6.027 4.146.563 2.534 2.558 5.077 4.603 6.784.728.606 3.688-.952 5.29-2.03 2.05-1.384 10.936-8.605 8.885-12.4-1.93-3.568-3.87-6.57-9.06-6.187-8.406.62-12.625-2.77-12.787-9.064-.017-.622.09-1.975.09-1.975s1.11-.28 1.4-.285c2.563-.033 5.13-.02 7.696-.02-.653-2.617-1.246-5.255-1.994-7.848-.4-1.39-1.07-2.704-1.63-4.08 9.917-2.9 17.983 4.306 15.948 14.49-.9 4.505-.426 7.936 2.41 11.45 3.37 4.183 2.803 8.28-1.174 11.902-2.832 2.576-5.545 5.296-8.502 7.723-2.113 1.735-4.264 2.72-4.475 5.5 1.344 4.825 3.77 7.46 7.848 9.162 5.902 2.466 8.27 7.702 6.797 14.156-1.846-8.415-5.842-14.133-15.684-13.133 6.268 6.658 11.396 13.396 6.856 22.534-.49.05-.98.103-1.47.15.212-1.484.417-2.97.632-4.455.785-5.423-.856-9.935-5.358-13.11-2.287-1.804-2.654-.53-4.007-.762.135 1.313-.103 2.818.458 3.91 3.625 7.007 1.115 14.74-6.702 17.254 1.56-1.92 7.443-6.448 6.116-12.146.16-1.444-1.19-3.56-2.49-4.465-.684-.476-2.924.743-4.126 1.643-12.838 9.585-8.19 9.673-21.164-.07-1.192-.895-3.44-2.066-4.132-1.584-1.303.91-4.24 2.978-2.195 8.437.304 2.676 4.262 6.298 5.682 8.08zm5.123-39.042l-1.165-1.137c-3.572.564-5.226 3.25-6.04 6.658-.122.512.61 1.43 1.182 1.82.293.2 1.347-.172 1.633-.582 1.536-2.2 2.94-4.494 4.39-6.758z"/><defs><path id="a" d="M34.057 90.04C26.92 87.947 23.85 79.93 26.93 73.79c.71-1.42.773-3.162 1.136-4.756-1.852.62-2.32-2.078-3.732-.92-3.813 3.126-6.53 9.244-5.802 13.985.21 1.36.524 3.837.84 5.88-3.534-3.778-4.487-7.938-2.15-12.7 1.822-3.707 4.792-6.85 7.258-10.253-6.104-2.887-14.314 2.86-15.5 12.35-2.064-4.968.465-11.37 6.693-13.67 4.95-1.83 6.068-2.538 8.162-9.25-.297-1.766-3.027-3.856-4.2-5.12-2.82-3.045-6.077-5.68-9.09-8.55-3.378-3.215-4.09-7.036-1.2-10.732 3.108-3.98 3.598-7.91 2.772-12.895C10.5 7.38 17.877 1.05 28.214 3.197c-1.03 2.32-2.182 4.486-2.95 6.782-.55 1.64-.585 3.453-.85 5.187 1.73.21 3.454.52 5.188.59 1.102.042 2.217-.277 3.3-.433 1.685 7.14-2.145 11.613-10.3 11.336-4.892-.168-8.673.783-10.31 5.57-.566 1.656-.33 4.31.685 5.632 2.098 2.74 4.817 5.08 7.568 7.212 1.512 1.172 4.56 2.724 5.262 2.134 2.04-1.712 4.032-4.245 4.59-6.775.835-3.78 2.283-5.265 6.025-3.965.463.16 12.42 1.057 17.847-.132 3.78-.827 5.19.375 6.027 4.146.563 2.534 2.558 5.077 4.603 6.784.728.606 3.688-.952 5.29-2.03 2.05-1.384 10.936-8.605 8.885-12.4-1.93-3.568-3.87-6.57-9.06-6.187-8.406.62-12.625-2.77-12.787-9.064-.017-.622.09-1.975.09-1.975s1.11-.28 1.4-.285c2.563-.033 5.13-.02 7.696-.02-.653-2.617-1.246-5.255-1.994-7.848-.4-1.39-1.07-2.704-1.63-4.08 9.917-2.9 17.983 4.306 15.948 14.49-.9 4.505-.426 7.936 2.41 11.45 3.37 4.183 2.803 8.28-1.174 11.902-2.832 2.576-5.545 5.296-8.502 7.723-2.113 1.735-4.264 2.72-4.475 5.5 1.344 4.825 3.77 7.46 7.848 9.162 5.902 2.466 8.27 7.702 6.797 14.156-1.846-8.415-5.842-14.133-15.684-13.133 6.268 6.658 11.396 13.396 6.856 22.534-.49.05-.98.103-1.47.15.212-1.484.417-2.97.632-4.455.785-5.423-.856-9.935-5.358-13.11-2.287-1.804-2.654-.53-4.007-.762.135 1.313-.103 2.818.458 3.91 3.625 7.007 1.115 14.74-6.702 17.254 1.56-1.92 7.443-6.448 6.116-12.146.16-1.444-1.19-3.56-2.49-4.465-.684-.476-2.924.743-4.126 1.643-12.838 9.585-8.19 9.673-21.164-.07-1.192-.895-3.44-2.066-4.132-1.584-1.303.91-4.24 2.978-2.195 8.437.304 2.676 4.262 6.298 5.682 8.08zm5.123-39.042l-1.165-1.137c-3.572.564-5.226 3.25-6.04 6.658-.122.512.61 1.43 1.182 1.82.293.2 1.347-.172 1.633-.582 1.536-2.2 2.94-4.494 4.39-6.758z"/></defs><clipPath id="b"><use xlink:href="#a" overflow="visible"/></clipPath><path clip-path="url(#b)" fill="#9B1B26" d="M42.948 14.005c0 9.513-7.712 17.225-17.224 17.225C16.21 31.23 8.5 23.518 8.5 14.005S16.21-3.22 25.724-3.22c9.512 0 17.224 7.712 17.224 17.225zM66.724-3.22C57.21-3.22 49.5 4.493 49.5 14.006S57.21 31.23 66.724 31.23c9.512 0 17.224-7.712 17.224-17.225S76.236-3.22 66.724-3.22z"/></svg>