<svg xmlns="http://www.w3.org/2000/svg" xmlns:xlink="http://www.w3.org/1999/xlink" width="90.333" height="92.447" viewBox="0 0 90.333 92.447"><path fill="#1E1E1E" d="M28.43 49.828c-7.816-2.32-16.195-2.95-21.463-11.27 1.872 0 2.92.122 3.932-.022 4.49-.644 8.98-1.296 13.446-2.083 2.606-.46 5.145-1.54 7.752-1.692 3.623-.216 23.238-20.58 27.65-6.586.29.913.828 1.848 1.5 2.524 7.688 7.744 15.373 15.496 23.18 23.125 3.01 2.945 3.658 5.843 1.867 9.826-2.164 4.81-3.625 9.935-5.4 14.92-1.736 4.885-4.61 8.66-10.432 10.52 1.043-3.002 2.134-5.383 2.686-7.883 1.714-7.766-6.49-15.422-14.083-12.99-1.227.393-2.395 2.605-2.646 4.134-2.106 12.798-2.038 13-14.93 13.18-6.962.1-14-.123-20.885-1.073-5.825-.805-7.323-3.457-5.025-8.813 3.205-7.466 7.26-14.565 10.942-21.826.576-1.14 1.103-2.303 1.91-3.99zm35.278.146c.31-.446.617-.893.926-1.34-1.014-3.41-2.73-6.367-6.74-7.16-1.055-.206-2.607.414-3.38 1.197-.386.392.147 2.552.84 2.98 2.658 1.647 5.55 2.914 8.354 4.324zM25.465 73.207L26.84 76c.817-.578 2.012-.978 2.385-1.765 1.265-2.663 2.33-5.433 3.257-8.233.24-.723-.31-1.705-.496-2.567-.833.317-2.107.4-2.424.998-1.462 2.735-2.657 5.616-4.097 8.774z"/><defs><path id="a" d="M28.43 49.828c-7.816-2.32-16.195-2.95-21.463-11.27 1.872 0 2.92.122 3.932-.022 4.49-.644 8.98-1.296 13.446-2.083 2.606-.46 5.145-1.54 7.752-1.692 3.623-.216 4.493-2.066 4.282-5.228-.408-6.092-3.025-11.398-8.2-14.117-6.22-3.266-13.16-5.175-19.834-7.542-1.48-.525-3.154-.516-4.735-1.336 9.077-3.084 18.378-3.4 27.668-1.764C45.048 7.2 55.338 14.178 59.75 28.17c.288.914.83 1.85 1.5 2.525C68.94 38.44 76.625 46.19 84.43 53.82c3.01 2.945 3.657 5.843 1.866 9.826-2.162 4.81-3.625 9.936-5.398 14.92-1.738 4.886-4.61 8.66-10.432 10.522 1.04-3.003 2.133-5.384 2.685-7.884 1.717-7.766-6.49-15.422-14.08-12.99-1.227.393-2.397 2.605-2.647 4.134-2.108 12.797-2.04 13-14.93 13.18-6.964.098-14.003-.124-20.887-1.074-5.824-.804-7.322-3.456-5.024-8.812 3.205-7.466 7.26-14.565 10.942-21.826.574-1.137 1.1-2.3 1.907-3.988zm35.278.146c.31-.446.617-.893.926-1.34-1.014-3.41-2.73-6.367-6.74-7.16-1.055-.206-2.607.414-3.38 1.197-.386.392.147 2.552.84 2.98 2.658 1.647 5.55 2.914 8.354 4.324zM25.465 73.207L26.84 76c.817-.578 2.012-.978 2.385-1.765 1.265-2.663 2.33-5.433 3.257-8.233.24-.723-.31-1.705-.496-2.567-.833.317-2.107.4-2.424.998-1.462 2.735-2.657 5.616-4.097 8.774z"/></defs><clipPath id="b"><use xlink:href="#a" overflow="visible"/></clipPath><path clip-path="url(#b)" fill="#9B1B26" d="M29.25 32.28l6.594.708s3.406 1.208 11.656 0 7-.208 15.75-5.958S44.5-10.72 43.5-10.47s-52.75.25-53.25 1-5.25 30.75-3.5 30.75 42.5 11 42.5 11z"/></svg>