<svg xmlns="http://www.w3.org/2000/svg" xmlns:xlink="http://www.w3.org/1999/xlink" width="90.333" height="92.447" viewBox="0 0 90.333 92.447"><path fill="#1E1E1E" d="M42.097 87.72c-3.19-2.688-6.982-4.96-9.51-8.22-3.9-5.034-7.955-10.368-10.113-16.246-3.628-9.883-3.543-20.248.267-30.343.36-.947.252-2.07.36-3.11-.528-.265-1.057-.525-1.584-.79-1.034 1.723-2.49 3.32-3.034 5.186-3.636 12.472-2.846 24.68 2.716 36.497.686 1.456 1.41 2.895 2.746 5.635-6.918-3.03-11.593-6.727-15.06-11.853-12.64-18.7-3.36-49.19 17.54-57.65 8.312-3.368 16.86-3.73 25.457-1.194 5.65 1.667 9.948 5.165 13.19 10.114 1.238 1.893 2.805 3.734 4.62 5.045 3.798 2.74 7.386 5.27 5.73 10.915-.267.907.833 2.416 1.618 3.39 1.67 2.07 3.614 3.917 5.334 5.95 7.64 9.037 7.164 15.02-1.565 23.437-.878.847-1.276 2.58-1.265 3.893.072 7.054-4.226 10.298-10.6 7.95-1.86-.685-3.91-.837-5.796-1.47-3.028-1.02-4.753-.128-6.474 2.686-2.46 4.032-5.672 7.605-8.562 11.375l-1.44-.705c.454-1.596.927-3.187 1.36-4.787 2.07-7.61 1.107-14.202-4.967-20.086-12.976-12.566-11.08-27.3 4.252-36.977 1.67-1.055 4.383-3.61 4.146-4.01-1.282-2.17-3.02-4.512-5.197-5.63-5.558-2.855-12.817 1.313-13.537 7.542-.17 1.475.604 3.058.883 4.312 2.922-3.285 5.222-6.34 8.064-8.758.79-.672 3.186.543 6.266 1.19-2.33 1.882-3.502 2.895-4.74 3.815-15.356 11.432-16.648 26.87-3.373 40.48 6.632 6.805 7.316 14.577 2.27 22.42zm22.95-42.817c.6-.092 1.195-.184 1.793-.273.285-3.194.713-6.39.738-9.586.006-.66-1.756-2.06-2.257-1.88-2.7.972-5.263 2.33-7.87 3.56l.15 1.534c5.208-.827 6.692 2.503 7.447 6.645z"/><defs><path id="a" d="M42.097 87.72c-3.19-2.688-6.982-4.96-9.51-8.22-3.9-5.034-7.955-10.368-10.113-16.246-3.628-9.883-3.543-20.248.267-30.343.36-.947.252-2.07.36-3.11-.528-.265-1.057-.525-1.584-.79-1.034 1.723-2.49 3.32-3.034 5.186-3.636 12.472-2.846 24.68 2.716 36.497.686 1.456 1.41 2.895 2.746 5.635-6.918-3.03-11.593-6.727-15.06-11.853-12.64-18.7-3.36-49.19 17.54-57.65 8.312-3.368 16.86-3.73 25.457-1.194 5.65 1.667 9.948 5.165 13.19 10.114 1.238 1.893 2.805 3.734 4.62 5.045 3.798 2.74 7.386 5.27 5.73 10.915-.267.907.833 2.416 1.618 3.39 1.67 2.07 3.614 3.917 5.334 5.95 7.64 9.037 7.164 15.02-1.565 23.437-.878.847-1.276 2.58-1.265 3.893.072 7.054-4.226 10.298-10.6 7.95-1.86-.685-3.91-.837-5.796-1.47-3.028-1.02-4.753-.128-6.474 2.686-2.46 4.032-5.672 7.605-8.562 11.375l-1.44-.705c.454-1.596.927-3.187 1.36-4.787 2.07-7.61 1.107-14.202-4.967-20.086-12.976-12.566-11.08-27.3 4.252-36.977 1.67-1.055 4.383-3.61 4.146-4.01-1.282-2.17-3.02-4.512-5.197-5.63-5.558-2.855-12.817 1.313-13.537 7.542-.17 1.475.604 3.058.883 4.312 2.922-3.285 5.222-6.34 8.064-8.758.79-.672 3.186.543 6.266 1.19-2.33 1.882-3.502 2.895-4.74 3.815-15.356 11.432-16.648 26.87-3.373 40.48 6.632 6.805 7.316 14.577 2.27 22.42zm22.95-42.817c.6-.092 1.195-.184 1.793-.273.285-3.194.713-6.39.738-9.586.006-.66-1.756-2.06-2.257-1.88-2.7.972-5.263 2.33-7.87 3.56l.15 1.534c5.208-.827 6.692 2.503 7.447 6.645z"/></defs><clipPath id="b"><use xlink:href="#a" overflow="visible"/></clipPath><path clip-path="url(#b)" fill="#9B1B26" d="M68.333 14.78C65 18.447 64.025 19.69 57.5 21.447c-6.525 1.757-7.834.833-10.168 2.667-2.333 1.834-12 9.833-13.333 13.5S34.83 56.28 37.33 59.78s7.73 7.335 8.114 10.668c.386 3.333 2.386 7 1.22 10.667-1.167 3.667-3.833 9-3.833 9s-13.5.833-20.167-3.667-16-12.667-17.833-18.833S.667 53.107 1.5 46.445 4.167 21.112 9.667 16.28 15.167 7.614 23 5.114 42.667-.053 49.333 1.947c6.666 2 14.5 3.333 16.834 6.5 2.332 3.167 2.166 6.333 2.166 6.333z"/></svg>