<svg xmlns="http://www.w3.org/2000/svg" xmlns:xlink="http://www.w3.org/1999/xlink" width="90.333" height="92.447" viewBox="0 0 90.333 92.447"><path fill="#1E1E1E" d="M40.1 13.1c-.247-5.51 1.135-7.923 5.07-7.898 4.01.024 5.504 2.78 4.9 7.916l34.6 14.253c-.728.26-1.87.79-3.072 1.063-1.384.313-2.82.396-5.087.69 4.028 10.192 7.93 19.676 11.462 29.297.758 2.063.87 4.895.074 6.89-1.89 4.726-5.86 7.02-10.998 7.225-5.137.204-9.066-1.898-11.72-6.227-1.628-2.65-1.814-5.114-.354-8.36 4.15-9.228 7.596-18.772 11.635-28.994-6.917-2.642-13.43-5.42-20.163-7.473-1.487-.453-4.53 1.18-5.487 2.71-1.416 2.265-2.178 5.287-2.225 8.004-.197 11.32-.08 22.65.03 33.974.073 7.343 2.307 13.402 9.924 16.295 1.103.42 1.728 2.093 2.575 3.186-1.065.674-2.12 1.914-3.2 1.934-8.635.15-17.277.146-25.913-.028-1.033-.02-2.04-1.34-3.06-2.055.762-.983 1.33-2.513 2.318-2.87 8.163-2.938 10.147-9.428 10.18-17.113.048-10.99.067-21.982.086-32.977 0-.83-.063-1.667-.17-2.49-1.09-8.347-4.358-10.462-12.18-7.587-4.367 1.604-8.456 4.144-12.922 5.236-3.542.866-7.467.173-12.064.173C16.8 22.723 28.1 18.056 40.1 13.1zm27.084 46.24c3.21.194 5.3.428 7.395.432 13.565.02 11.548.693 7.283-10.85-1.438-3.89-5.265-13.347-5.265-13.347S70.2 51.54 67.184 59.34zM13.894 28s8.648 22.686 12.52 32.38c.426 1.067.015 2.643-.4 3.847-1.698 4.916-6.11 8.07-11.35 8.31-5.704.26-10.533-2.272-12.427-7.313-.757-2.015-.6-4.804.148-6.873 2.768-7.658 5.944-15.17 8.992-22.725.596-1.478 2.518-7.624 2.518-7.624zm-9.58 31.792c5.848 0 10.29-.026 14.733.008 3.508.03 3.656.53 3.656.53l-8.396-26.668S7.54 51.497 4.315 59.792z"/><defs><path id="a" d="M40.1 13.1c-.247-5.51 1.135-7.923 5.07-7.898 4.01.024 5.504 2.78 4.9 7.916l34.6 14.253c-.728.26-1.87.79-3.072 1.063-1.384.313-2.82.396-5.087.69 4.028 10.192 7.93 19.676 11.462 29.297.758 2.063.87 4.895.074 6.89-1.89 4.726-5.86 7.02-10.998 7.225-5.137.204-9.066-1.898-11.72-6.227-1.628-2.65-1.814-5.114-.354-8.36 4.15-9.228 7.596-18.772 11.635-28.994-6.917-2.642-13.43-5.42-20.163-7.473-1.487-.453-4.53 1.18-5.487 2.71-1.416 2.265-2.178 5.287-2.225 8.004-.197 11.32-.08 22.65.03 33.974.073 7.343 2.307 13.402 9.924 16.295 1.103.42 1.728 2.093 2.575 3.186-1.065.674-2.12 1.914-3.2 1.934-8.635.15-17.277.146-25.913-.028-1.033-.02-2.04-1.34-3.06-2.055.762-.983 1.33-2.513 2.318-2.87 8.163-2.938 10.147-9.428 10.18-17.113.048-10.99.067-21.982.086-32.977 0-.83-.063-1.667-.17-2.49-1.09-8.347-4.358-10.462-12.18-7.587-4.367 1.604-8.456 4.144-12.922 5.236-3.542.866-7.467.173-12.064.173C16.8 22.723 28.1 18.056 40.1 13.1zm27.084 46.24c3.21.194 5.3.428 7.395.432 13.565.02 11.548.693 7.283-10.85-1.438-3.89-5.265-13.347-5.265-13.347S70.2 51.54 67.184 59.34zM13.894 28s8.648 22.686 12.52 32.38c.426 1.067.015 2.643-.4 3.847-1.698 4.916-6.11 8.07-11.35 8.31-5.704.26-10.533-2.272-12.427-7.313-.757-2.015-.6-4.804.148-6.873 2.768-7.658 5.944-15.17 8.992-22.725.596-1.478 2.518-7.624 2.518-7.624zm-9.58 31.792c5.848 0 10.29-.026 14.733.008 3.508.03 3.656.53 3.656.53l-8.396-26.668S7.54 51.497 4.315 59.792z"/></defs><clipPath id="b"><use xlink:href="#a" overflow="visible"/></clipPath><path clip-path="url(#b)" fill="#9B1B26" d="M59.833 58.947H89.5s1.5 9.5 0 12-16.5 6-17 5.833-12.833-6-12.667-6.5 0-11.333 0-11.333zm-59 11.333c-.166.5 12.167 6.334 12.667 6.5s15.5-3.333 17-5.833 1.292-10.708 1.292-10.708L17.5 59.363S.792 59.49.292 59.49c0 0 .708 10.29.54 10.79z"/></svg>