<svg xmlns="http://www.w3.org/2000/svg" width="90.333" height="92.447" viewBox="0 0 90.333 92.447"><path fill-rule="evenodd" clip-rule="evenodd" fill="#9B1B26" d="M34.167 11.114l-6.5 5.333-3 6.333 3.833 4 11-3.667s15.563-4.667 14.948-5.167-1.782-6-2.448-6.833-10.833-2.666-11.5-2.666-6.333 2.667-6.333 2.667zM36.966 73.447c.868 0 13.534-3.667 13.534-3.667l9-4.667s5 .167 4.833 0S66 68.447 65.667 69.28s-3 5-3.5 5.667-6.4 4.833-7.7 5.167-12.633 1.333-13.133 1.5-4.368-4.333-4.368-4.333v-3.833z"/><path fill-rule="evenodd" clip-rule="evenodd" fill="#1E1E1E" d="M56.247 54.36l-1.596 5.39c7.514-2.778 13.904-5.525 17.693-11.712 1.04-1.697.093-5-.675-7.323-1.083-3.278-2.85-6.33-4.85-10.61 2.645.507 3.846.368 4.415.903 4.704 4.418 8.102 2.55 11.34-1.922 1.053-1.45 2.84-2.37 4.292-3.53.485.294.97.59 1.454.886-.856 2.52-1.355 5.24-2.63 7.527-4.56 8.17-7.81 16.75-10.303 25.797-1.412 5.12-4.724 9.826-7.724 14.36-2.313 3.496-5.673 5.96-6.428 10.786-.714 4.562-7.553 5.82-11.477 3.136-1.612-1.106-3.834-1.672-5.826-1.813-8.906-.63-16.488-3.58-21.826-11.172-2.31-3.282-2.202-5.962 1.692-7.536 4.906-1.982 10.03-3.433 14.904-5.48 1.876-.79 3.953-2.264 4.852-3.99 2.883-5.528 5.892-6.705 12.693-3.7zM45.8 77.67c7.138-.397 12.398-2.89 16.527-7.558.692-.782.617-2.243.896-3.39-1.12.302-2.6.253-3.3.967-3.78 3.845-8.233 5.898-13.62 6.27-1.142.077-2.207 1.286-3.307 1.975L45.8 77.67zM3 64.982c1.055-2.824 1.758-5.847 3.23-8.433 4.393-7.717 7.34-15.887 9.745-24.435 1.444-5.14 4.607-9.896 7.54-14.478 2.34-3.65 6.01-6.104 6.742-11.155.648-4.47 7.655-5.73 11.51-3.18 1.893 1.254 4.446 1.96 6.74 2.072 8.72.422 15.716 3.81 20.87 10.935 2.33 3.225 2.25 5.977-1.674 7.566-4.75 1.924-9.707 3.33-14.442 5.28-1.93.796-4.232 2.05-5.127 3.75-3.11 5.906-5.766 7.043-12.686 4.208l1.44-5.652C29.57 34.4 23.123 37.028 19.295 43.19c-1.06 1.702-.28 4.98.465 7.27 1.117 3.43 2.953 6.625 4.484 9.92l-1.274.824c-.893-.252-2.028-.238-2.638-.797-4.623-4.247-8.104-2.813-11.335 1.835-1.05 1.508-2.798 2.527-4.227 3.77-.59-.342-1.18-.686-1.77-1.03zm24.655-42.99c.54.707 1.082 1.414 1.624 2.12 5.048-6.376 12.04-8.61 19.593-9.95-3.83-3.758-7.624-1.99-11.09-.716-4.398 1.614-8.293 4.132-10.128 8.545z"/></svg>