<svg xmlns="http://www.w3.org/2000/svg" xmlns:xlink="http://www.w3.org/1999/xlink" width="90.333" height="92.447" viewBox="0 0 90.333 92.447"><path fill="#1E1E1E" d="M11.495 88.186c.35-2.73.698-5.46 1.142-8.918L3.265 80c4.65-5.33 7.72-12.192 15.844-12.688 2.722-.166 3.477-1.766 2.634-4.567-3.596-11.96-6.93-23.996-10.527-35.954-.49-1.632-2.023-2.927-2.918-4.47-.773-1.335-1.324-2.798-1.413-2.99 4.036-1.618 7.272-2.596 10.203-4.146 11.252-5.95 22.553-4.836 33.768-.266 3.813 1.554 7.5 3.723 10.746 6.252 2.97 2.316 4.75 1.838 7.133-.656 2.457-2.572.936-4.053-.838-5.774-.58-.562 9.327 9.345 8.61 8.563-1.803-1.97-3.4-2.313-5.43-.21-1.884 1.95-3.263 3.435-1.025 6.282C78 39.493 81.905 50.993 79.993 63.89c-.593 3.997-2.76 7.75-4.078 11.656-.937 2.77-1.662 5.61-2.847 9.668-.312-.117-2.02-.588-3.55-1.405-2.25-1.207-4.206-3.19-6.568-3.92-11.14-3.43-22.4-6.455-33.556-9.83-2.812-.85-4.82-.66-5.016 2.516-.498 8.134-7.543 11.062-11.7 16.278l-1.183-.668zM27.95 67.02c2.29.827 3.79 1.463 5.342 1.912 9.733 2.815 19.47 5.614 29.22 8.37 6.488 1.834 9.494.376 11.354-6.13.844-2.955 1.116-6.26.817-9.32-.927-9.44-5.733-17.176-11.397-24.514-2.255-2.92-3.896-2.64-6.318-.16-8.707 8.916-17.596 17.655-26.39 26.487-.788.79-1.39 1.76-2.628 3.356zm-3.797-3.988c1.216-.158 1.658-.078 1.842-.26 9.938-9.792 19.903-19.56 29.655-29.533.595-.61-.02-3.725-.905-4.245C47.92 25 41.172 20.61 33.835 17.84c-6.1-2.304-12.916-1.878-18.345 2.905-1.19 1.05-2.58 3.224-2.25 4.436 3.435 12.626 7.2 25.162 10.913 37.852z"/><defs><path id="a" d="M11.495 88.186c.35-2.73.698-5.46 1.142-8.918L3.265 80c4.65-5.33 7.72-12.192 15.844-12.688 2.722-.166 3.477-1.766 2.634-4.567-3.596-11.96-6.93-23.996-10.527-35.954-.49-1.632-2.023-2.927-2.918-4.47-.773-1.335-1.324-2.798-1.413-2.99 4.036-1.618 7.272-2.596 10.203-4.146 11.252-5.95 22.553-4.836 33.768-.266 3.813 1.554 7.5 3.723 10.746 6.252 2.97 2.316 4.75 1.838 7.133-.656 2.457-2.572.936-4.053-.838-5.774-.58-.562-1.015-1.27-2.036-2.573 6.994-2.61 13.584-5.072 21.77-8.132-2.91 7.95-5.307 14.485-7.89 21.534-1.47-1.008-2.517-1.485-3.232-2.267-1.804-1.97-3.4-2.313-5.43-.21-1.884 1.95-3.263 3.435-1.025 6.282C78 39.493 81.904 50.993 79.993 63.89c-.593 3.997-2.76 7.75-4.078 11.656-.937 2.77-1.662 5.61-2.847 9.668-.312-.117-2.02-.588-3.55-1.405-2.25-1.207-4.206-3.19-6.568-3.92-11.14-3.43-22.4-6.455-33.556-9.83-2.812-.85-4.82-.66-5.016 2.516-.498 8.134-7.543 11.062-11.7 16.278l-1.183-.668zM27.95 67.02c2.29.827 3.79 1.463 5.342 1.912 9.733 2.815 19.47 5.614 29.22 8.37 6.488 1.834 9.494.376 11.354-6.13.844-2.955 1.116-6.26.817-9.32-.927-9.44-5.733-17.176-11.397-24.514-2.255-2.92-3.896-2.64-6.318-.16-8.707 8.916-17.596 17.655-26.39 26.487-.788.79-1.39 1.76-2.628 3.356zm-3.797-3.988c1.216-.158 1.658-.078 1.842-.26 9.938-9.792 19.903-19.56 29.655-29.533.595-.61-.02-3.725-.905-4.245C47.92 25 41.172 20.61 33.835 17.84c-6.1-2.304-12.916-1.878-18.345 2.905-1.19 1.05-2.58 3.224-2.25 4.436 3.435 12.626 7.2 25.162 10.913 37.852z"/></defs><clipPath id="b"><use xlink:href="#a" overflow="visible"/></clipPath><path clip-path="url(#b)" fill="#9B1B26" d="M67.5 15.655s3.603 2.263 7.8 6.57c4.198 4.305 10.575 7.055 10.325 6.68S95.75-4.345 95.25-4.22s-34 5.375-34 5.375L64 15.405l3.5.25z"/></svg>