<svg xmlns="http://www.w3.org/2000/svg" xmlns:xlink="http://www.w3.org/1999/xlink" width="90.333" height="92.447" viewBox="0 0 90.333 92.447"><path fill="#1E1E1E" d="M30.164 75.396c1.928 3.666 3.157 7.093 5.332 9.746 1.384 1.687 4.205 3.1 6.313 3.01 1.753-.075 4.17-2.183 4.96-3.98 2.285-5.185-1.123-15.384-5.9-18.394-.95-.598-2.707-.115-4.04.138-2.812.532-5.59 1.242-8.385 1.88l-.44-1.68c2.336-.625 4.895-.852 6.933-2.003 1.506-.85 2.33-2.904 3.462-4.423-1.64-.406-3.317-1.263-4.91-1.126-3.695.314-7.37 1.23-11.26-2.004 3.833 0 6.93.446 9.794-.172 1.662-.36 2.953-2.435 4.412-3.735-1.59-.71-3.143-1.902-4.778-2.03-4.203-.33-7.874-1.294-11.163-5.7 4.16 1.325 7.147 2.682 10.26 3.088 1.422.19 3.09-1.495 4.648-2.33-1.145-1.522-1.975-3.86-3.48-4.44-12.49-4.795-17.228-11.896-16.063-24.804.84-9.306 7.267-14.64 17.237-14.03l-5.91 8.103c2.314.145 3.666.23 5.124.323-.044.57.102 1.202-.147 1.477-2.94 3.228-5.478 7.14-9.056 9.38-3.542 2.217-4.052 4.104-1.878 7.06 1.557 2.118 3.328 4.208 5.4 5.795 5.917 4.528 7.492 3.817 10.553-2.665 1.824-3.864 3.743-7.24 1.037-11.445-.537-.835.074-2.41.182-4.012 6.824 6.29 7.52 6.283 14.097-.49 0 2.162.546 3.9-.09 4.835-4.204 6.167 2.19 10.366 2.823 15.602.055.45 2.81 1.27 3.72.79 3.046-1.594 6.245-3.284 8.61-5.696 4.842-4.938 4.098-6.678-1.44-10.402-3.366-2.265-5.848-5.844-8.726-8.83.338-.45.678-.9 1.016-1.354h5.225L57.85 2.693c6.637-1.126 13.098 1.93 15.437 7.897 4.123 10.525 2.22 23.972-11.537 29.456-1.39.554-3.102.636-4.186 1.52-1.116.913-2.352 2.62-2.217 3.834.115 1.03 2.227 2.738 3.246 2.602 3.496-.47 6.898-1.62 11.19-2.73-1.94 3.323-4.878 4.355-7.938 5.037-1.434.317-3.035-.106-4.46.23-1.106.264-2.974 1.343-2.897 1.788.21 1.242 1.1 3.19 1.995 3.355 3.618.662 7.34.758 12.384 1.176-4.054 2.453-7.52 2.407-11.113 1.738-2.146-.4-5.092-2.17-5.404 1.524-.115 1.356 2.48 3.33 4.232 4.343 1.617.937 3.76.966 5.672 1.394-.067.523-.14 1.05-.207 1.574-2.574-.442-5.14-.978-7.73-1.294-1.61-.198-4.13-.72-4.71.054-1.097 1.46-1.537 3.77-1.446 5.688.173 3.62 1.517 7.254 1.286 10.812-.413 6.365-5.417 9.287-11.405 7.135-2.795-1.006-5.544-2.192-8.2-3.523-3.475-1.744-3.616-5.366.324-10.91z"/><defs><path id="a" d="M30.164 75.396c1.928 3.666 3.157 7.093 5.332 9.746 1.384 1.687 4.205 3.1 6.313 3.01 1.753-.075 4.17-2.183 4.96-3.98 2.285-5.185-1.123-15.384-5.9-18.394-.95-.598-2.707-.115-4.04.138-2.812.532-5.59 1.242-8.385 1.88l-.44-1.68c2.336-.625 4.895-.852 6.933-2.003 1.506-.85 2.33-2.904 3.462-4.423-1.64-.406-3.317-1.263-4.91-1.126-3.695.314-7.37 1.23-11.26-2.004 3.833 0 6.93.446 9.794-.172 1.662-.36 2.953-2.435 4.412-3.735-1.59-.71-3.143-1.902-4.778-2.03-4.203-.33-7.874-1.294-11.163-5.7 4.16 1.325 7.147 2.682 10.26 3.088 1.422.19 3.09-1.495 4.648-2.33-1.145-1.522-1.975-3.86-3.48-4.44-12.49-4.795-17.228-11.896-16.063-24.804.84-9.306 7.267-14.64 17.237-14.03l-5.91 8.103c2.314.145 3.666.23 5.124.323-.044.57.102 1.202-.147 1.477-2.94 3.228-5.478 7.14-9.056 9.38-3.542 2.217-4.052 4.104-1.878 7.06 1.557 2.118 3.328 4.208 5.4 5.795 5.917 4.528 7.492 3.817 10.553-2.665 1.824-3.864 3.743-7.24 1.037-11.445-.537-.835.074-2.41.182-4.012 6.824 6.29 7.52 6.283 14.097-.49 0 2.162.546 3.9-.09 4.835-4.204 6.167 2.19 10.366 2.823 15.602.055.45 2.81 1.27 3.72.79 3.046-1.594 6.245-3.284 8.61-5.696 4.842-4.938 4.098-6.678-1.44-10.402-3.366-2.265-5.848-5.844-8.726-8.83.338-.45.678-.9 1.016-1.354h5.225L57.85 2.693c6.637-1.126 13.098 1.93 15.437 7.897 4.123 10.525 2.22 23.972-11.537 29.456-1.39.554-3.102.636-4.186 1.52-1.116.913-2.352 2.62-2.217 3.834.115 1.03 2.227 2.738 3.246 2.602 3.496-.47 6.898-1.62 11.19-2.73-1.94 3.323-4.878 4.355-7.938 5.037-1.434.317-3.035-.106-4.46.23-1.106.264-2.974 1.343-2.897 1.788.21 1.242 1.1 3.19 1.995 3.355 3.618.662 7.34.758 12.384 1.176-4.054 2.453-7.52 2.407-11.113 1.738-2.146-.4-5.092-2.17-5.404 1.524-.115 1.356 2.48 3.33 4.232 4.343 1.617.937 3.76.966 5.672 1.394-.067.523-.14 1.05-.207 1.574-2.574-.442-5.14-.978-7.73-1.294-1.61-.198-4.13-.72-4.71.054-1.097 1.46-1.537 3.77-1.446 5.688.173 3.62 1.517 7.254 1.286 10.812-.413 6.365-5.417 9.287-11.405 7.135-2.795-1.006-5.544-2.192-8.2-3.523-3.475-1.744-3.616-5.366.324-10.91z"/></defs><clipPath id="b"><use xlink:href="#a" overflow="visible"/></clipPath><path clip-path="url(#b)" fill="#9B1B26" d="M37.5 9.863c0 8.33-6.678 15.083-14.917 15.083S7.667 18.194 7.667 9.863c0-8.33 6.678-15.083 14.917-15.083S37.5 1.533 37.5 9.863zM69.583-5.22c-8.237 0-14.916 6.753-14.916 15.083s6.678 15.083 14.916 15.083c8.24 0 14.918-6.752 14.918-15.083 0-8.33-6.678-15.083-14.917-15.083z"/></svg>