<svg xmlns="http://www.w3.org/2000/svg" xmlns:xlink="http://www.w3.org/1999/xlink" width="90.333" height="92.447" viewBox="0 0 90.333 92.447"><path fill="#1E1E1E" d="M74.713 4.464c-5.53 2.177-11.36 3.818-16.5 6.69-4.537 2.54-8.81 6.003-12.277 9.88-3.588 4.012-2.665 8.23 2.27 10.1C60.857 35.93 69.26 44.34 73.634 57.158c.9 2.636 3.86 4.494 5.377 7.008 2.863 4.745 6.136 9.477 7.69 14.674.755 2.534-1.186 7.02-3.38 8.918-1.684 1.458-5.754.675-8.625.143-7.104-1.316-14.09-3.27-21.2-4.547-3.563-.642-7.358.02-10.934-.594-6.844-1.172-12.192-4.426-13.718-11.922-.16-.792-.537-1.577-.975-2.264-.23-.355-.81-.487-1.22-.715-3.697 5.09.593 12.08 10.81 17.765-7.814 6.94-16.152 6.633-22.108-1.495C6.775 72.43 3.197 59.14 4.19 44.614c.418-6.103 4.664-8.26 9.617-9.077 5.25-.866 7.114-2.768 6.15-8.49-1.324-7.842 2.54-14.092 9.264-17.946C43.553.88 59.02 1.25 74.714 4.465zM62.625 59.798c-1.27-9.272-6.387-12.44-15.44-9.518l15.44 9.518zm20.055 14.97c-2.487 3.942-4.672 7.406-7.018 11.128 3.43 1.884 6.006 1.618 7.95-1.077 2.32-3.218 1.9-6.4-.932-10.052z"/><defs><path id="a" d="M74.713 4.464c-5.53 2.177-11.36 3.818-16.5 6.69-4.537 2.54-8.81 6.003-12.277 9.88-3.588 4.012-2.665 8.23 2.27 10.1C60.857 35.93 69.26 44.34 73.634 57.158c.9 2.636 3.86 4.494 5.377 7.008 2.863 4.745 6.136 9.477 7.69 14.674.755 2.534-1.186 7.02-3.38 8.918-1.684 1.458-5.754.675-8.625.143-7.104-1.316-14.09-3.27-21.2-4.547-3.563-.642-7.358.02-10.934-.594-6.844-1.172-12.192-4.426-13.718-11.922-.16-.792-.537-1.577-.975-2.264-.23-.355-.81-.487-1.22-.715-3.697 5.09.593 12.08 10.81 17.765-7.814 6.94-16.152 6.633-22.108-1.495C6.775 72.43 3.197 59.14 4.19 44.614c.418-6.103 4.664-8.26 9.617-9.077 5.25-.866 7.114-2.768 6.15-8.49-1.324-7.842 2.54-14.092 9.264-17.946C43.553.88 59.02 1.25 74.714 4.465zM62.625 59.798c-1.27-9.272-6.387-12.44-15.44-9.518l15.44 9.518zm20.055 14.97c-2.487 3.942-4.672 7.406-7.018 11.128 3.43 1.884 6.006 1.618 7.95-1.077 2.32-3.218 1.9-6.4-.932-10.052z"/></defs><clipPath id="b"><use xlink:href="#a" overflow="visible"/></clipPath><path clip-path="url(#b)" fill="#9B1B26" d="M14.167 28.447s8.833 5.167 15 5 10.667-.667 18.333-5C55.167 24.114 81 11.28 81 11.28L76.667 1.114H53.333L17 5.28l-2.833 23.167z"/></svg>