<svg xmlns="http://www.w3.org/2000/svg" xmlns:xlink="http://www.w3.org/1999/xlink" width="90.333" height="92.447" viewBox="0 0 90.333 92.447"><path fill="#1E1E1E" d="M38.197 78.85c-.428.718-1.13 1.975-1.902 3.187-3.57 5.605-10.746 8.203-18.582 6.75-5.72-1.06-9.722-4.832-10.932-10.31-1.227-5.562 1.08-10.355 6.154-12.577.22.388.613.774.642 1.188.237 3.49 1.66 6.12 5.536 5.263 3.782-.837 3.9-3.95 3.214-7.208-1.683-7.98-3.785-15.913-4.808-23.98-2.05-16.172 4.817-29.037 18.546-35.422C46.61.836 57.236 1.177 67.098 7.394c3.568 2.252 6.136 6.092 10.134 10.208-3.772.98-5.804 1.468-7.813 2.033-9.76 2.744-16.792 8.57-20.44 18.19-1.395 3.678-2.577 7.354.72 10.71 3.304 3.367 7.093 4.113 11.404 1.89.362.266.728.53 1.09.797-1.198 1.776-2.01 4.172-3.67 5.218-5.217 3.288-8.98-.07-12.88-4.9-1.702 6.912-4.288 12.462 1.096 17.76-5.575 3.643-6.97-2.644-10.25-4.06-1.348 3.822.347 6.975 4.258 8.437 4.35 1.622 10-.582 11.18-4.73.29-1.02-.98-3.508-1.823-3.653-3.746-.646-2.945-2.745-2.352-5.1 9.563 2.064 15.05.112 17.396-6.063 1.904-5.014-.855-11.056-6.673-14.06 0 1.078-.072 1.996.016 2.896.202 2.094 1.228 4.81-2.255 4.817-3.03.008-5.64-1.965-4.602-5.063 1.442-4.313 3.442-8.693 6.233-12.235 4.085-5.188 10.284-7.29 16.712-7.99 1.36-.147 3.9 1.445 4.23 2.68.917 3.455.796 7.173 1.4 10.73.473 2.766.834 5.835 2.304 8.075 1.77 2.702 2.93 4.14.68 7.638-2.278 3.543-2.823 8.375-3.47 12.74-.512 3.46-2.032 4.497-5.266 4.312-10.504-.596-13.047-2.19-9.928 12.564 2.12 10.038 1.334 10.73-8.365 7.728-3.494-1.083-7.088-2.112-10.278-3.83-2.64-1.422-4.754-3.82-7.693-6.283zm14.195-67.647c-6.224-2.57-18.7 4.128-23.632 12.604-4.085 7.02-4.38 15.487-1.188 18.03 2.12-6.266 2.86-13.916 6.898-18.875 4.248-5.21 11.655-7.848 17.922-11.76z"/><defs><path id="a" d="M38.197 78.85c-.428.718-1.13 1.975-1.902 3.187-3.57 5.605-10.746 8.203-18.582 6.75-5.72-1.06-9.722-4.832-10.932-10.31-1.227-5.562 1.08-10.355 6.154-12.577.22.388.613.774.642 1.188.237 3.49 1.66 6.12 5.536 5.263 3.782-.837 3.9-3.95 3.214-7.208-1.683-7.98-3.785-15.913-4.808-23.98-2.05-16.172 4.817-29.037 18.546-35.422C46.61.836 57.236 1.177 67.098 7.394c3.568 2.252 6.136 6.092 10.134 10.208-3.772.98-5.804 1.468-7.813 2.033-9.76 2.744-16.792 8.57-20.44 18.19-1.395 3.678-2.577 7.354.72 10.71 3.304 3.367 7.093 4.113 11.404 1.89.362.266.728.53 1.09.797-1.198 1.776-2.01 4.172-3.67 5.218-5.217 3.288-8.98-.07-12.88-4.9-1.702 6.912-4.288 12.462 1.096 17.76-5.575 3.643-6.97-2.644-10.25-4.06-1.348 3.822.347 6.975 4.258 8.437 4.35 1.622 10-.582 11.18-4.73.29-1.02-.98-3.508-1.823-3.653-3.746-.646-2.945-2.745-2.352-5.1 9.563 2.064 15.05.112 17.396-6.063 1.904-5.014-.855-11.056-6.673-14.06 0 1.078-.072 1.996.016 2.896.202 2.094 1.228 4.81-2.255 4.817-3.03.008-5.64-1.965-4.602-5.063 1.442-4.313 3.442-8.693 6.233-12.235 4.085-5.188 10.284-7.29 16.712-7.99 1.36-.147 3.9 1.445 4.23 2.68.917 3.455.796 7.173 1.4 10.73.473 2.766.834 5.835 2.304 8.075 1.77 2.702 2.93 4.14.68 7.638-2.278 3.543-2.823 8.375-3.47 12.74-.512 3.46-2.032 4.497-5.266 4.312-10.504-.596-13.047-2.19-9.928 12.564 2.12 10.038 1.334 10.73-8.365 7.728-3.494-1.083-7.088-2.112-10.278-3.83-2.64-1.422-4.754-3.82-7.693-6.283zm14.195-67.647c-6.224-2.57-18.7 4.128-23.632 12.604-4.085 7.02-4.38 15.487-1.188 18.03 2.12-6.266 2.86-13.916 6.898-18.875 4.248-5.21 11.655-7.848 17.922-11.76z"/></defs><clipPath id="b"><use xlink:href="#a" overflow="visible"/></clipPath><path clip-path="url(#b)" fill="#9B1B26" d="M78.833 18.614s-6 .667-10.832 2.833c-4.833 2.166-8.49 4.32-12.833 8.333s-7 10.667-5.832 14c1.166 3.333 1.666 5.5 4.5 5.5 2.832 0 7 .667 8.332 0 1.334-.667 3.56.667 1.78 3.167s-1.612 5-4.946 5.833-5.833.833-8.833 0-4.27-1.25-4.717.625c-.448 1.875-.282 5.71 1.05 7.042 1.335 1.333 3.5 3.333 1.67 4.5-1.835 1.167-4.5 2.333-6.668 1.667s-1.16 2.582-4.163 8.208-.67 9.626-19.35 10.96c-4.168-.5-16.655-9.334-14.988-15s2.833-34.668 5.5-40 4.333-22.834 9.833-25.5S33.5 3.44 37.5 2.36s20.667-2.748 24-.915C64.833 3.28 76 9.78 77.833 12.947c1.834 3.167 1 5.667 1 5.667z"/></svg>