<svg xmlns="http://www.w3.org/2000/svg" xmlns:xlink="http://www.w3.org/1999/xlink" width="80" height="26"><defs><linearGradient id="linear-gradient" x1="12.96" y1="13.04" x2="24.56" y2="13.04" gradientUnits="userSpaceOnUse"><stop offset="0" stop-color="#fff"/><stop offset=".24" stop-color="#fcfcfc"/><stop offset=".4" stop-color="#f3f3f3"/><stop offset=".54" stop-color="#e3e4e4"/><stop offset=".68" stop-color="#cdcecf"/><stop offset=".8" stop-color="#b1b2b3"/><stop offset=".91" stop-color="#8f9092"/><stop offset="1" stop-color="#707174"/></linearGradient><linearGradient id="linear-gradient-2" x1=".62" y1="6.8" x2="23.51" y2="6.8" gradientUnits="userSpaceOnUse"><stop offset=".62" stop-color="#fff"/><stop offset=".67" stop-color="#f4f4f4"/><stop offset=".76" stop-color="#d7d7d8"/><stop offset=".88" stop-color="#a8a9aa"/><stop offset="1" stop-color="#707174"/></linearGradient><linearGradient id="linear-gradient-3" x1=".62" y1="19.29" x2="23.51" y2="19.29" xlink:href="#linear-gradient-2"/><linearGradient id="linear-gradient-4" x1=".61" y1="13.04" x2="19.61" y2="13.04" gradientUnits="userSpaceOnUse"><stop offset="0"/><stop offset=".22" stop-color="#030201"/><stop offset=".38" stop-color="#0c0603"/><stop offset=".52" stop-color="#1c0f08"/><stop offset=".64" stop-color="#321a0e"/><stop offset=".76" stop-color="#4e2a16"/><stop offset=".87" stop-color="#713c21"/><stop offset=".98" stop-color="#99522c"/><stop offset="1" stop-color="#a3572f"/></linearGradient><radialGradient id="radial-gradient" cx="19.25" cy="13.12" r="11.85" gradientTransform="matrix(.99 0 0 1 -.1 0)" gradientUnits="userSpaceOnUse"><stop offset=".66" stop-color="#fff"/><stop offset=".71" stop-color="#f7f7f7"/><stop offset=".77" stop-color="#e1e2e2"/><stop offset=".86" stop-color="#bebec0"/><stop offset=".95" stop-color="#8d8e90"/><stop offset="1" stop-color="#707174"/></radialGradient><style>.cls-4{fill:#a62a3a}</style></defs><g style="isolation:isolate"><g id="Layer_1" data-name="Layer 1"><ellipse cx="12.75" cy="13.04" rx="12.14" ry="12.26" fill="#c13e46"/><ellipse cx="12.75" cy="13.04" rx="12.14" ry="12.26" style="mix-blend-mode:multiply" opacity=".62" fill="url(#linear-gradient)"/><path class="cls-4" d="M23.51 8.1A2.86 2.86 0 0023 6.49a12.42 12.42 0 00-1.68-2.12 12.05 12.05 0 00-17.17 0 12.25 12.25 0 00-3.53 8.45A9.22 9.22 0 013.3 6.5a9.1 9.1 0 0113 0 9.22 9.22 0 011.89 2.77 2.8 2.8 0 005.32-1.17z"/><path d="M17.18 17.34a6 6 0 01-8.51 0 6.12 6.12 0 010-8.59 6 6 0 018.51 0 6.15 6.15 0 002.43 2 2.81 2.81 0 01-1.44-1.4 9.22 9.22 0 00-1.92-2.85 9.1 9.1 0 00-12.95 0 9.22 9.22 0 00-2.68 6.32 1.7 1.7 0 000 .22 1.77 1.77 0 000 .23 9.22 9.22 0 002.68 6.32 9.1 9.1 0 0013 0 9.22 9.22 0 001.89-2.77 2.81 2.81 0 011.44-1.4 6.15 6.15 0 00-2.45 1.92z" fill="#630023"/><path class="cls-4" d="M23.51 18a2.86 2.86 0 01-.51 1.6 12.42 12.42 0 01-1.68 2.12 12.05 12.05 0 01-17.17 0 12.25 12.25 0 01-3.53-8.45 9.22 9.22 0 002.68 6.32 9.1 9.1 0 0013 0 9.22 9.22 0 001.89-2.77A2.8 2.8 0 0123.51 18z"/><g style="mix-blend-mode:multiply" opacity=".51"><path d="M23.51 8.1A2.86 2.86 0 0023 6.49a12.42 12.42 0 00-1.68-2.12 12.05 12.05 0 00-17.17 0 12.25 12.25 0 00-3.53 8.45A9.22 9.22 0 013.3 6.5a9.1 9.1 0 0113 0 9.22 9.22 0 011.89 2.77 2.8 2.8 0 005.32-1.17z" fill="url(#linear-gradient-2)"/><path d="M23.51 18a2.86 2.86 0 01-.51 1.6 12.42 12.42 0 01-1.68 2.12 12.05 12.05 0 01-17.17 0 12.25 12.25 0 01-3.53-8.45 9.22 9.22 0 002.68 6.32 9.1 9.1 0 0013 0 9.22 9.22 0 001.89-2.77A2.8 2.8 0 0123.51 18z" fill="url(#linear-gradient-3)"/></g><path d="M17.18 17.34a6 6 0 01-8.51 0 6.12 6.12 0 010-8.59 6 6 0 018.51 0 6.15 6.15 0 002.43 2 2.81 2.81 0 01-1.44-1.4 9.22 9.22 0 00-1.92-2.85 9.1 9.1 0 00-12.95 0 9.22 9.22 0 00-2.68 6.32 1.7 1.7 0 000 .22 1.77 1.77 0 000 .23 9.22 9.22 0 002.68 6.32 9.1 9.1 0 0013 0 9.22 9.22 0 001.89-2.77 2.81 2.81 0 011.44-1.4 6.15 6.15 0 00-2.45 1.92z" style="mix-blend-mode:screen" fill="url(#linear-gradient-4)"/><ellipse cx="12.93" cy="13.04" rx="6.02" ry="6.08" style="mix-blend-mode:multiply" opacity=".5" fill="url(#radial-gradient)"/><path d="M33.11 11.77h-.61a1.54 1.54 0 00-2.5-.36 1.66 1.66 0 000 2.28 1.5 1.5 0 001.12.47 1.48 1.48 0 00.77-.2 1.4 1.4 0 00.56-.57h.6a2.35 2.35 0 01-.65.85 2 2 0 01-1.28.41A2.07 2.07 0 0129.6 14a2.13 2.13 0 01-.55-1.45 2 2 0 01.54-1.4 2 2 0 011.58-.69 2 2 0 011.19.35 2 2 0 01.75.96zm5.14.98H34.7a1.31 1.31 0 00.44 1 1.49 1.49 0 001.07.41 1.52 1.52 0 00.83-.24 1.6 1.6 0 00.55-.66h.56a2.17 2.17 0 01-.75 1 2 2 0 01-1.19.37 2 2 0 01-1.48-.59 2.07 2.07 0 01-.59-1.5 2.14 2.14 0 01.52-1.42 1.94 1.94 0 011.55-.68 1.83 1.83 0 011.58.75 2.58 2.58 0 01.46 1.56zm-.58-.49a1.68 1.68 0 00-.52-1 1.4 1.4 0 00-.94-.35 1.47 1.47 0 00-1 .36 1.57 1.57 0 00-.52.95zm5.33 2.3h-.58L41 11.24l-1.39 3.32H39l1.69-4h.56zm4.82-1.81h-3.55a1.31 1.31 0 00.44 1 1.49 1.49 0 001.07.41 1.52 1.52 0 00.83-.24 1.71 1.71 0 00.56-.66h.55a2.17 2.17 0 01-.75 1 2 2 0 01-1.19.37 2 2 0 01-1.48-.59 2.07 2.07 0 01-.59-1.5 2.1 2.1 0 01.53-1.42 1.91 1.91 0 011.54-.68 1.83 1.83 0 011.58.75 2.51 2.51 0 01.46 1.56zm-.58-.49a1.62 1.62 0 00-.52-1 1.4 1.4 0 00-.94-.35 1.47 1.47 0 00-1 .36 1.57 1.57 0 00-.52.95zm5.03 2.3h-.54v-1.81h-2.22v1.81H49v-4h.53v1.71h2.22v-1.72h.54zm5.35 0h-.51v-.75a2 2 0 01-.74.67 1.85 1.85 0 01-.82.17 2.07 2.07 0 01-1.55-.59 2 2 0 01-.61-1.53 2 2 0 01.61-1.39 2 2 0 011.59-.68 1.88 1.88 0 01.93.2 1.69 1.69 0 01.63.59v-.7h.51zm-.51-2a1.64 1.64 0 00-.45-1.16 1.49 1.49 0 00-1.12-.4 1.48 1.48 0 00-1.11.46 1.58 1.58 0 00-.43 1.11 1.55 1.55 0 00.46 1.14 1.58 1.58 0 001.12.45 1.51 1.51 0 001.11-.46 1.55 1.55 0 00.42-1.12zM65 15.58h-.53v-1H61v-4h.54v3.52h2.23v-3.55h.54v3.52H65zm4.87-2.83h-3.55a1.31 1.31 0 00.44 1 1.49 1.49 0 001.07.41 1.52 1.52 0 00.83-.24 1.6 1.6 0 00.55-.66h.56a2.17 2.17 0 01-.75 1 2 2 0 01-1.19.37 2 2 0 01-1.48-.59 2.07 2.07 0 01-.59-1.5 2.1 2.1 0 01.53-1.42 1.91 1.91 0 011.54-.68 1.83 1.83 0 011.58.75 2.58 2.58 0 01.46 1.56zm-.58-.49a1.68 1.68 0 00-.52-1 1.4 1.4 0 00-.94-.35 1.47 1.47 0 00-1 .36 1.57 1.57 0 00-.52.95zm5.28 2.3H74l-1.4-3.32-1.39 3.32h-.58l1.69-4h.56zm4.82-2.79h-.6a1.57 1.57 0 00-.56-.61 1.59 1.59 0 00-1.91.25 1.54 1.54 0 00-.45 1.13 1.59 1.59 0 00.46 1.15 1.5 1.5 0 001.12.47 1.48 1.48 0 00.77-.2 1.42 1.42 0 00.57-.57h.59a2.24 2.24 0 01-.65.85 2 2 0 01-1.28.41 2 2 0 01-1.56-.65 2.09 2.09 0 01-.56-1.45 2 2 0 01.54-1.4 2.08 2.08 0 013.52.62z" fill="#2c475b"/><path d="M43.13 17.99h.32v1.1h.24v-1.1h.32v-.23h-.88v.23zm2.15.25H45v-.48h-.54V18h.3v1.1h.54a.47.47 0 00.37-.15.44.44 0 00.09-.27.45.45 0 00-.08-.26.48.48 0 00-.4-.18zm.23.43a.17.17 0 010 .13.24.24 0 01-.17.06H45v-.4h.3a.24.24 0 01.17.06.22.22 0 01.04.15zm.84-.91h.24v1.34h-.24zm1.06 0h-.29l-.52.66.53.67h.32l-.55-.69.51-.64zm1.64.15a.49.49 0 00-.14-.11.62.62 0 00-.31-.07.68.68 0 00-.7.69.69.69 0 00.2.51.69.69 0 00.5.19.76.76 0 00.27-.05.85.85 0 00.19-.14v.16h.23v-1.33h-.23zm-.13.19a.46.46 0 010 .66.43.43 0 01-.32.14.47.47 0 01-.33-.14.44.44 0 01-.13-.33.45.45 0 01.13-.34.44.44 0 01.33-.09.39.39 0 01.32.1zm1.91.2h-.63v-.54h-.24v1.33h.24v-.57h.63v.57h.24v-1.33h-.24v.54zm1.78 0h-.63v-.54h-.24v1.33h.24v-.57h.63v.57h.24v-1.33h-.24v.54zm2.02-.39a.42.42 0 00-.15-.11.57.57 0 00-.31-.07.64.64 0 00-.52.23.65.65 0 00-.18.46.69.69 0 00.21.51.68.68 0 00.5.19.76.76 0 00.27-.05.62.62 0 00.18-.14v.16h.24v-1.33h-.24zm-.13.19a.47.47 0 01-.32.8.45.45 0 01-.33-.14.44.44 0 01-.13-.33.45.45 0 01.13-.34.44.44 0 01.32-.13.4.4 0 01.33.14zm2.69-.33a.56.56 0 00-.33.1.44.44 0 00-.15.12.45.45 0 01.2-.32.58.58 0 01.33-.09h.57v-.23h-.57a.9.9 0 00-.34.06.7.7 0 00-.3.27 1.26 1.26 0 00-.12.59 1 1 0 00.2.65.66.66 0 00.51.2.67.67 0 00.49-.19.66.66 0 00.19-.48.68.68 0 00-.19-.49.66.66 0 00-.49-.19zm.43.68a.45.45 0 01-.12.32.42.42 0 01-.31.13.44.44 0 01-.32-.13.45.45 0 01-.12-.32.44.44 0 01.12-.32.41.41 0 01.32-.13.43.43 0 01.31.12.45.45 0 01.12.33zm1.98-.54a.53.53 0 00-.15-.11.59.59 0 00-.31-.07.66.66 0 00-.53.23.69.69 0 00-.17.46.73.73 0 00.2.51.72.72 0 00.51.19.76.76 0 00.27-.05.79.79 0 00.18-.14v.16h.23v-1.33h-.23zm-.13.19a.47.47 0 01-.32.8.48.48 0 01-.47-.47.46.46 0 01.14-.34.42.42 0 01.32-.13.42.42 0 01.33.14zm1.9.2h-.62v-.54h-.25v1.33h.25v-.57h.62v.57h.24v-1.33h-.24v.54zm1.98-.54h-.29l-.52.66.53.67h.31l-.54-.69.51-.64zm-1.07 0h.24v1.34h-.24zm2.72 0v.15a.49.49 0 00-.14-.11.62.62 0 00-.31-.07.64.64 0 00-.55.27.65.65 0 00-.18.46.69.69 0 00.21.51.68.68 0 00.5.19.76.76 0 00.27-.05.62.62 0 00.18-.14v.16h.24v-1.37zm0 .67a.44.44 0 01-.13.33.43.43 0 01-.32.14.47.47 0 01-.33-.14.44.44 0 01-.13-.33.45.45 0 01.13-.34.44.44 0 01.33-.13.4.4 0 01.32.14.44.44 0 01.13.33z" fill="#2d475b"/></g></g></svg>